<svg id="svg" xmlns="http://www.w3.org/2000/svg" xmlns:xlink="http://www.w3.org/1999/xlink" width="400" height="400" viewBox="0, 0, 400,400"><g id="svgg"><path id="path0" d="M339.523 18.772 C 312.378 21.880,287.140 33.101,262.524 53.003 C 254.246 59.696,237.500 76.148,237.500 77.588 C 237.500 78.101,256.651 97.670,280.058 121.074 L 322.617 163.627 332.643 153.493 C 367.806 117.954,383.448 82.360,381.730 41.797 C 381.199 29.252,380.255 22.881,378.701 21.349 C 376.370 19.051,351.419 17.409,339.523 18.772 M211.907 86.139 L 201.571 96.497 252.155 147.077 C 279.976 174.895,303.107 197.656,303.556 197.656 C 304.958 197.656,324.219 177.677,324.219 176.223 C 324.219 174.878,282.190 131.568,244.754 94.336 C 230.517 80.177,225.641 75.781,224.171 75.781 C 222.739 75.781,219.587 78.444,211.907 86.139 M129.486 168.565 C 92.223 205.838,62.500 236.169,62.500 236.922 C 62.500 237.667,63.790 239.704,65.366 241.449 L 68.233 244.622 62.241 250.649 C 58.946 253.963,56.250 257.020,56.250 257.442 C 56.250 257.863,75.583 277.539,99.211 301.165 L 142.173 344.121 148.655 337.672 L 155.137 331.224 157.800 333.971 C 163.176 339.518,157.765 344.185,231.834 270.119 C 268.466 233.489,298.438 203.166,298.438 202.734 C 298.438 201.707,198.284 101.563,197.257 101.563 C 196.825 101.563,166.328 131.714,129.486 168.565 M29.873 268.173 C 20.928 277.132,17.969 280.578,17.969 282.033 C 17.969 284.850,115.132 382.031,117.948 382.031 C 120.361 382.031,143.750 359.003,143.750 356.627 C 143.750 354.492,45.493 256.250,43.358 256.250 C 42.361 256.250,37.385 260.650,29.873 268.173 " stroke="none" fill="#5499c7" fill-rule="evenodd"></path></g></svg>